<svg id="Capa_1" data-name="Capa 1" xmlns="http://www.w3.org/2000/svg" viewBox="0 0 685.63 175"><polygon points="355.11 72 402.15 8.99 367.76 8.99 321.81 73.23 321.87 73.3 374.61 145.71 409.86 145.71 355.11 72" style="fill:#fff"/><path d="M319,75.21l-.05-.07-1.38-1.89,1.36-1.9,9.48-13.29c-2.31-3.67-5-7.94-5.71-9.08s0-1.23-1.86-3.3c-1.59-1.8-6.49-10.48-6.69-13.17-.19-2.51-2.56-.62-3.77-4.18-.59-1.71-3.44-5.82.68-4.46.34,1.41,8.59,15.63,9.2,15.86,1.41-1.09-4.13-7.71-3.48-9.91-1.33-1.85-8.38-14.6-8-15.88,1.94-6.36-1.64,1.63-1.64-2.7,0-1.29.09-6.93-1.35-2.55-.33,1-2-3.4-3.52-4.62-2-1.54-.81.84-1.11,4.08-.65,7.18-2.92-4.1-3.37-4.42-1.65-1.2,1.66,2.46-3.72,2.46a6.78,6.78,0,0,0-3.37,1,6,6,0,0,0-1.93,2.37c-.51,1.54-2,4.33-.12,6.53.84,1,4.33-4.82,2,.32-.69,1.52-1.47.4-.28,2.74.94,1.84-1.4,1.25,3.08,1.25,0,1.72-4.76,4.48-4.81,3.05-.17-4.2-2.23.33-2.32-2.67,0-1.48,2.85-1.75-1.85-2.44-2.74-.4,2.26-3.46-3.82-1-.27.11-.74.89-.88,1.09-1.14,2.62-.47-2.56-3.54,1.91a23.78,23.78,0,0,1-4.62,3.09c-.68-.52-1,5.05-1.87,1-.07-.36-.95.21-1.86-1.55-.24-.46-4.26-6.47-4.26-4.55,0,1.7,3.85,4.67.16,6.78-2,1.13-.67-5.31-2.37,1.42-1.57,6.22-2.26,3.54-4.92,6.81-.86,1.05,3.46,5.5-3.35,2.82-1.74-.69.81,1.44.86,4.26,0,.06,1.72,2,2.37.57.2-.46,3.26-2.42,4.65.69.66,1.47,1.89,0,.16-2.54,0-.05-.66-2.08.83-1.53,2.66,1,5.69-3.22,5.4,0-.12,1.44-1.95-.21,1.56,2,1.32.83-4.07,4.76-.27,2.19,3.11-2.1,3.2-1,.44,1.14-4.82,3.72-2.12,3.56,1.9.38,1.91-1.51.09,1.25.58,1.25,3.1,0-.2-1.22,3.27,3,1.5,1.82,4.13,7.18,6.77,10.54,2.91,3.69,5.17,8.59,9.41,11.78C293,71.32,298,78.06,298,80.29c0,3.2-5.17,2.94-.43,3.33-1.13,2.9-7.75,7.86-12,11.89-2.9,2.77-5.47,4.4-7.81,7.47a93.45,93.45,0,0,1-6.5,7.81c-3.65,3.63-10.67,13.92-14.41,18.93-2.77,3.71-7.42,8.32-9.47,11.56-.67,1.07-9.72,10.87-3.22,9.12,3.57-1,13.94-16.89,16.61-18.89,4-3,5.06-9.52,11.76-12.13.75-.29,13.39-16.62,12.55-13.71-1.71,6-15.37,23.07-20.1,28-2.48,2.56-7.08,7.54-8.57,10.52-.39.8-3.82,4.68-1.94,4.34.12,0,3-3.69,3.59-4.15a17.18,17.18,0,0,0,4.1-3.82c1.05-1.27,1.09-1.41,1.47-1.84.22-.25,9.82-13.37,7-7.31-.74,1.58-13.31,16.41-6,13,2.13-1,11.73-15.24,7.26-5.11a15.41,15.41,0,0,1-2.93,4.49,3.16,3.16,0,0,0-.78.65c-.82.67-1.35,1.22-.95,1.5s-.09,1.39-1.34,2.4l-1.08.74a9.31,9.31,0,0,1-6.36,1c-6.24-1.12,2.94,8.37-4,8-6.67-.34,1.61,17.09,1.62,11.83,0-1.14,4.73-3.54,6.16-.94.72,1.31,3.51,4.21,4.36,1.08.95-3.48,2.09,3.47,2.31-4.64.12-4.54,8.7-2.1,6.81-4.87-.79-1.15-3.07-.94-2.95-2.65.05-.71,4.24-1.75.72-2.18-.14,0-1.14-1.42,1-2.22,5.17-1.89-1.81-2.22,4.9-2.25,2.42,0,.63-2.4,1.48-4,1.72-3.15.1-1.25,3-5.36,1.66-1.6,3.21-3.62,4.82-5.24,3.35-3.38,3.8-4.54,6.86-8.34,5.85-7.27,11.58-14.63,16.84-21,3.07-3.71,11.19-14.79,15.59-19.93Z" style="fill:#fff"/><path d="M288,89.6c1.59-1.39,3.7-3.23,5.19-4.75a3,3,0,0,1-.35-.93,3,3,0,0,1,1.8-3.36,4.62,4.62,0,0,0,.54-.33c-.53-1.78-4.34-7-5.73-8.08-3.29-2.47-5.49-5.78-7.42-8.7-.59-.89-1.16-1.72-1.73-2.52a48.68,48.68,0,0,0-2.14,14.45v.27a47.94,47.94,0,0,0,3.57,18.45c.12.28.24.54.36.81.53-.45,1.06-.93,1.6-1.44C284.94,92.22,286.47,90.89,288,89.6Z" style="fill:#fff"/><path d="M667.27,50A11.25,11.25,0,1,0,656,38.74,11.25,11.25,0,0,0,667.27,50Zm0-20.68a9.43,9.43,0,1,1-9.43,9.43A9.43,9.43,0,0,1,667.27,29.31Z" style="fill:#fff"/><path d="M319.07,28.18l.81,1.12-.3,1a22.12,22.12,0,0,0,1.63,3.39c1.67,3.06,3.4,6.23.77,8.25l-.21.17.37.58a34.92,34.92,0,0,1,4.26-.27,30.3,30.3,0,0,1,12.21,2.46L347.85,32l-1.61-.73a49.57,49.57,0,0,0-19.58-3.77A54.94,54.94,0,0,0,319,28Z" style="fill:#fff"/><path d="M665.49,40.24h.93c1.24,0,1.83.48,2.19,2.17a16.8,16.8,0,0,0,.94,3.15h3.14a39.67,39.67,0,0,1-1.11-3.82,3.4,3.4,0,0,0-1.81-2.53v-.06a3.6,3.6,0,0,0,2.4-3.34A3.45,3.45,0,0,0,670.92,33a6.94,6.94,0,0,0-4.38-1.07,26.78,26.78,0,0,0-4.08.29V45.56h3Zm0-6a7.66,7.66,0,0,1,1.39-.1c1.41,0,2.25.64,2.25,1.89s-.91,2-2.43,2h-1.21Z" style="fill:#fff"/><path d="M372.52,90.71A48.39,48.39,0,0,0,375,75.38v-.26a48,48,0,0,0-3.57-18.46l-.48-1.09L358.63,72Z" style="fill:#fff"/><polygon points="389.57 30.56 386.55 34.6 386.55 109.59 396.88 123.5 403.25 123.5 403.25 66.82 433.24 96.02 433.79 96.02 464.05 66.55 464.05 123.5 480.76 123.5 480.76 27.65 433.65 72.97 389.57 30.56" style="fill:#fff"/><polygon points="94.73 27.65 75.42 27.65 51.46 62.02 27.63 27.65 7.77 27.65 41.33 74.75 6.4 123.5 25.71 123.5 51.05 87.21 76.24 123.5 96.1 123.5 61.32 74.48 94.73 27.65" style="fill:#fff"/><path d="M578.55,123.5h17.26L608,100.36h41l12.22,23.14h17.26l-50-95.85Zm50-38.06H615.69l12.85-24.1,12.84,24.1Z" style="fill:#fff"/><path d="M570.74,81.87a24.77,24.77,0,0,0-6-4.72,47.67,47.67,0,0,0-7.68-3.49,36.88,36.88,0,0,0,5.09-3.29,21.58,21.58,0,0,0,4.35-4.45,22.45,22.45,0,0,0,3-5.89,23.67,23.67,0,0,0,1.16-7.73V52a21.57,21.57,0,0,0-6.43-15.88q-8.46-8.49-25-8.49H496.28V123.5h44.29a57.51,57.51,0,0,0,14.5-1.71,34,34,0,0,0,11.2-5,22.62,22.62,0,0,0,7.18-8.21A24.54,24.54,0,0,0,576,97.21v-.27a25.13,25.13,0,0,0-1.36-8.63A19.32,19.32,0,0,0,570.74,81.87ZM513,42.57h24.15q8.19,0,12.49,3.22a10.57,10.57,0,0,1,4.3,9V55q0,6.59-4.91,9.8T535.92,68H513Zm46.28,52.86q0,6.57-4.91,9.86t-13.52,3.29H513V82.29h26.62q10,0,14.81,3.35a10.88,10.88,0,0,1,4.85,9.52Z" style="fill:#fff"/><polygon points="101.84 43.26 132.25 43.26 132.25 123.5 149.23 123.5 149.23 43.26 179.63 43.26 179.63 27.65 101.84 27.65 101.84 43.26" style="fill:#fff"/><path d="M257.89,123.5l.26-.35c1.94-2.71,4-5.59,6-8.16L244.3,87.21a35.39,35.39,0,0,0,9.24-3.9A27.61,27.61,0,0,0,265.46,68.8a31.05,31.05,0,0,0,1.71-10.62v-.27a31.94,31.94,0,0,0-1.41-9.57,3,3,0,0,1-1.84-1.84,3,3,0,0,1,.17-2.36c0-.06,0-.13-.08-.19a3.13,3.13,0,0,1-2.37,1.1,3.48,3.48,0,0,1-3.13-2.17,3.5,3.5,0,0,1-2.83,1.42c-1.89,0-4.45-1.92-4.48-3.87a5.29,5.29,0,0,0-.79-2.2,3.49,3.49,0,0,1-.26-3.65,2.93,2.93,0,0,1,2.54-1.41,3.56,3.56,0,0,1,.9.12c0-.09,0-.18,0-.27a36.16,36.16,0,0,0-6-2.84,46.86,46.86,0,0,0-16-2.53H188.84V123.5h16.71V90.09H226.7l23.63,33.41ZM205.55,75.16V42.85h24.58q9.48,0,14.7,4t5.22,11.9v.27a14.28,14.28,0,0,1-5.36,11.76q-5.35,4.33-14.42,4.33Z" style="fill:#fff"/><path d="M341.26,104.72c-.66.35-1.32.71-2,1a30.28,30.28,0,0,1-12.58,2.58,30.65,30.65,0,0,1-10.1-1.64c-.79,1-1.48,1.89-2,2.55-2.62,3.15-5.33,6.53-8.16,10.07l.44.2a49.57,49.57,0,0,0,19.58,3.77A48.93,48.93,0,0,0,346,119.44c1.52-.67,3-1.39,4.42-2.17Z" style="fill:#fff"/></svg>