<?xml version="1.0" encoding="utf-8"?>
<!-- Generator: Adobe Illustrator 25.2.0, SVG Export Plug-In . SVG Version: 6.00 Build 0)  -->
<svg version="1.1" id="Capa_1" xmlns="http://www.w3.org/2000/svg" xmlns:xlink="http://www.w3.org/1999/xlink" x="0px" y="0px"
	 viewBox="0 0 958.4 240" style="enable-background:new 0 0 958.4 240;" xml:space="preserve">
<style type="text/css">
	.st0{fill:#000413;}
	.st1{fill:#E42613;}
</style>
<g>
	<g>
		<path class="st0" d="M456.3,170.9c-10.2,0-19.5-1.8-27.9-5.4c-8.4-3.6-15.6-8.4-21.7-14.6c-6-6.2-10.7-13.3-14.1-21.6
			c-3.4-8.2-5.1-17-5.1-26.3v-0.4c0-9.3,1.7-18.1,5.1-26.3c3.4-8.2,8.2-15.4,14.3-21.7c6.2-6.2,13.4-11.1,21.9-14.8
			c8.4-3.6,17.7-5.5,27.9-5.5c10.2,0,19.5,1.8,27.9,5.4c8.4,3.6,15.6,8.4,21.7,14.6c6,6.2,10.7,13.3,14.1,21.6s5.1,17,5.1,26.3v0.4
			c0,9.3-1.7,18.1-5.1,26.3c-3.4,8.2-8.2,15.4-14.3,21.7c-6.2,6.2-13.4,11.1-21.9,14.8C475.8,169.1,466.5,170.9,456.3,170.9z
			 M456.7,149.7c6.5,0,12.5-1.2,17.9-3.7c5.4-2.4,10.1-5.8,14-10c3.9-4.2,6.9-9.1,9.1-14.8c2.2-5.7,3.3-11.7,3.3-18.1v-0.4
			c0-6.4-1.1-12.5-3.3-18.2c-2.2-5.7-5.3-10.7-9.2-14.9c-3.9-4.2-8.7-7.6-14.2-10.1c-5.5-2.5-11.5-3.8-18-3.8
			c-6.5,0-12.5,1.2-17.9,3.7c-5.4,2.4-10.1,5.8-14,10s-6.9,9.1-9.1,14.8c-2.2,5.7-3.3,11.7-3.3,18.1v0.4c0,6.4,1.1,12.5,3.3,18.2
			c2.2,5.7,5.3,10.7,9.2,14.9c3.9,4.2,8.7,7.6,14.2,10.1C444.2,148.4,450.2,149.7,456.7,149.7z"/>
		<path class="st0" d="M50.4,101.8L2.6,34.8h28.3l33.9,48.9L99,34.8h27.5l-47.6,66.7l49.5,69.8h-28.3l-35.9-51.7l-36.1,51.7H0.7
			L50.4,101.8z"/>
		<path class="st0" d="M179.9,57h-43.3V34.8h110.8V57h-43.3v114.3h-24.2V57z"/>
		<path class="st0" d="M260.5,34.8h60.8c8.6,0,16.2,1.2,22.8,3.6c6.6,2.4,12.2,5.8,16.6,10c3.6,3.8,6.4,8.1,8.4,13.1
			c1.9,4.9,2.9,10.4,2.9,16.4v0.4c0,5.6-0.8,10.6-2.4,15.1c-1.6,4.5-3.9,8.5-6.7,11.9c-2.9,3.4-6.3,6.4-10.2,8.8
			c-4,2.4-8.3,4.3-13.2,5.6l36.9,51.7H348l-33.6-47.6H314h-29.7v47.6h-23.8V34.8z M319.5,102.4c8.6,0,15.5-2.1,20.5-6.2
			c5.1-4.1,7.6-9.7,7.6-16.7v-0.4c0-7.4-2.5-13.1-7.4-16.9c-5-3.8-11.9-5.8-20.9-5.8h-35v46H319.5z"/>
		<path class="st0" d="M542,34.8L542,34.8l67.1,64.5l67.1-64.5l0,0v136.5h-23.8V90.2l-43.1,42h-0.8l-42.7-41.6v80.7H542V34.8z"/>
		<path class="st0" d="M698.3,34.8h61.1c15.7,0,27.6,4,35.6,12.1c6.1,6.1,9.1,13.7,9.1,22.6v0.4c0,4.2-0.5,7.8-1.6,11
			c-1.1,3.2-2.5,6-4.3,8.4c-1.7,2.4-3.8,4.5-6.2,6.3c-2.4,1.8-4.8,3.4-7.3,4.7c4,1.4,7.7,3.1,10.9,5c3.3,1.9,6.1,4.1,8.5,6.7
			c2.4,2.6,4.2,5.7,5.5,9.2c1.3,3.5,1.9,7.6,1.9,12.3v0.4c0,6.1-1.2,11.5-3.6,16.2c-2.4,4.7-5.8,8.6-10.2,11.7
			c-4.4,3.1-9.7,5.5-16,7.1c-6.2,1.6-13.1,2.4-20.6,2.4h-63.1V34.8z M754.7,92.3c7.8,0,14-1.5,18.7-4.6c4.7-3.1,7-7.7,7-13.9v-0.4
			c0-5.5-2-9.7-6.1-12.8c-4.1-3.1-10-4.6-17.8-4.6H722v36.3H754.7z M761.7,150c8.2,0,14.6-1.6,19.3-4.7c4.7-3.1,7-7.8,7-14v-0.4
			c0-5.8-2.3-10.4-6.9-13.6c-4.6-3.2-11.6-4.8-21.1-4.8H722V150H761.7z"/>
		<g>
			<path class="st0" d="M886.6,34.8l-71.2,136.5H840l17.4-33h29.2h29.2l17.4,33h24.6L886.6,34.8z M886.6,117.1h-18.3l18.3-34.3
				l18.3,34.3H886.6z"/>
			<g>
				<path class="st0" d="M941.7,34.5c-8.8,0-16,7.2-16,16c0,8.8,7.2,16,16,16c8.8,0,16-7.2,16-16C957.8,41.7,950.6,34.5,941.7,34.5z
					 M941.7,64c-7.4,0-13.4-6-13.4-13.4c0-7.4,6-13.4,13.4-13.4s13.4,6,13.4,13.4C955.2,58,949.2,64,941.7,64z"/>
				<g>
					<path class="st0" d="M934.9,41.2c1.4-0.2,3.5-0.4,5.8-0.4c2.9,0,4.9,0.4,6.2,1.5c1.1,0.9,1.8,2.3,1.8,4c0,2.5-1.7,4.2-3.4,4.8
						v0.1c1.3,0.5,2.1,1.8,2.6,3.6c0.6,2.2,1.2,4.7,1.6,5.4H945c-0.3-0.5-0.8-2.1-1.3-4.5c-0.5-2.4-1.3-3.1-3.1-3.1h-1.3v7.6h-4.3
						V41.2z M939.2,49.5h1.7c2.2,0,3.5-1.1,3.5-2.8c0-1.8-1.2-2.7-3.2-2.7c-1.1,0-1.7,0.1-2,0.1V49.5z"/>
				</g>
			</g>
		</g>
	</g>
	<g>
		<polygon class="st1" points="497.2,97.9 564.2,8.2 515.3,8.2 449.8,99.7 449.9,99.8 525,202.9 575.2,202.9 		"/>
		<g>
			<path class="st1" d="M445.8,102.5l-0.1-0.1l-2-2.7l1.9-2.7l13.5-18.9c-3.3-5.2-7.1-11.3-8.1-12.9c-1.1-1.8-0.1-1.8-2.6-4.7
				c-2.3-2.6-9.3-14.9-9.5-18.8c-0.3-3.6-3.6-0.9-5.4-6c-0.8-2.4-4.9-8.3,1-6.4c0.5,2,12.2,22.3,13.1,22.6c2-1.6-5.9-11-5-14.1
				c-1.9-2.6-11.9-20.8-11.4-22.6c2.8-9.1-2.3,2.3-2.3-3.8c0-1.8,0.1-9.9-1.9-3.6c-0.5,1.4-2.8-4.8-5-6.6c-2.8-2.2-1.2,1.2-1.6,5.8
				c-0.9,10.2-4.2-5.8-4.8-6.3c-2.4-1.7,2.4,3.5-5.3,3.5c-3.1,0-4.1,1.3-4.8,1.4c0,0-2.1,1.5-2.7,3.4c-0.7,2.2-2.8,6.2-0.2,9.3
				c1.2,1.4,6.2-6.9,2.9,0.4c-1,2.2-2.1,0.6-0.4,3.9c1.3,2.6-2,1.8,4.4,1.8c0,2.4-6.8,6.4-6.9,4.3c-0.2-6-3.2,0.5-3.3-3.8
				c-0.1-2.1,4.1-2.5-2.6-3.5c-3.9-0.6,3.2-4.9-5.4-1.4c-0.4,0.2-1,1.3-1.2,1.6c-1.6,3.7-0.7-3.6-5,2.7c-0.6,0.8-6.4,4.6-6.6,4.4
				c-1-0.7-1.4,7.2-2.7,1.4c-0.1-0.5-1.4,0.3-2.7-2.2c-0.3-0.7-6.1-9.2-6.1-6.5c0,2.4,5.5,6.7,0.2,9.7c-2.8,1.6-0.9-7.6-3.4,2
				c-2.2,8.9-3.2,5-7,9.7c-1.2,1.5,4.9,7.8-4.8,4c-2.5-1,1.2,2.1,1.2,6.1c0,0.1,2.4,2.9,3.4,0.8c0.3-0.7,4.6-3.4,6.6,1
				c0.9,2.1,2.7,0,0.2-3.6c-0.1-0.1-0.9-3,1.2-2.2c3.8,1.4,8.1-4.6,7.7,0.1c-0.2,2-2.8-0.3,2.2,2.8c1.9,1.2-5.8,6.8-0.4,3.1
				c4.4-3,4.6-1.4,0.6,1.6c-6.9,5.3-3,5.1,2.7,0.5c2.7-2.2,0.1,1.8,0.8,1.8c4.4,0-0.3-1.7,4.7,4.3c2.1,2.6,5.9,10.2,9.6,15
				c4.1,5.3,7.4,12.2,13.4,16.8c2.7,2,9.8,11.6,9.8,14.8c0,4.6-7.4,4.2-0.6,4.8c-1.6,4.1-11,11.2-17,16.9
				c-4.1,3.9-7.8,6.3-11.1,10.6c-1.7,2.2-6.1,7.9-9.3,11.1c-5.2,5.2-15.2,19.8-20.5,27c-3.9,5.3-10.6,11.9-13.5,16.5
				c-1,1.5-13.9,15.5-4.6,13c5.1-1.4,19.9-24.1,23.7-26.9c5.7-4.2,7.2-13.6,16.7-17.3c1.1-0.4,19.1-23.7,17.9-19.5
				c-2.4,8.5-21.9,32.9-28.6,39.8c-3.5,3.6-10.1,10.7-12.2,15c-0.6,1.1-5.4,6.7-2.8,6.2c0.2,0,4.3-5.3,5.1-5.9
				c3.3-2.5,3.5-2.6,5.8-5.4c1.5-1.8,1.6-2,2.1-2.6c0.3-0.4,14-19,9.9-10.4c-1.1,2.3-19,23.4-8.6,18.6c3-1.4,16.7-21.7,10.3-7.3
				c-1.6,3.7-2.8,4.8-4.2,6.4c-0.5,0.4-0.9,0.7-1.1,0.9c-1.2,1-1.9,1.7-1.3,2.1c0.6,0.4-0.1,2-1.9,3.4c-0.5,0.4-1,0.7-1.5,1.1
				c-2.2,1.3-5.3,2.1-9.1,1.5c-8.9-1.6,4.2,11.9-5.6,11.4c-9.5-0.5,2.3,24.3,2.3,16.8c0-1.6,6.7-5,8.8-1.3c1,1.9,5,6,6.2,1.5
				c1.3-5,3,4.9,3.3-6.6c0.2-6.5,12.4-3,9.7-6.9c-1.1-1.6-4.4-1.3-4.2-3.8c0.1-1,6-2.5,1-3.1c-0.2,0-1.6-2,1.5-3.2
				c7.4-2.7-2.6-3.2,7-3.2c3.4,0,0.9-3.4,2.1-5.6c2.5-4.5,0.1-1.8,4.2-7.6c2.4-2.3,4.6-5.2,6.9-7.5c4.8-4.8,5.4-6.5,9.8-11.9
				c8.3-10.4,16.5-20.8,24-29.9c4.4-5.3,15.9-21.1,22.2-28.4L445.8,102.5z"/>
		</g>
	</g>
</g>
</svg>
