<?xml version="1.0" encoding="utf-8"?>
<!-- Generator: Adobe Illustrator 25.2.0, SVG Export Plug-In . SVG Version: 6.00 Build 0)  -->
<svg version="1.1" id="Capa_1" xmlns="http://www.w3.org/2000/svg" xmlns:xlink="http://www.w3.org/1999/xlink" x="0px" y="0px"
	 viewBox="0 0 958.4 240" style="enable-background:new 0 0 958.4 240;" xml:space="preserve">
<style type="text/css">
	.st0{fill:#000413;}
	.st1{fill:#E42613;}
	.st2{fill:#FFFFFF;}
</style>
<g>
	<polygon class="st1" points="496.8,98.5 562.1,11 514.4,11 450.5,100.2 450.6,100.3 523.9,200.8 572.8,200.8 	"/>
	<path class="st1" d="M446.6,102.9l-0.1-0.1l-1.9-2.6l1.9-2.6l13.2-18.5c-3.2-5.1-6.9-11-7.9-12.6c-1.1-1.7-0.1-1.7-2.6-4.6
		c-2.2-2.5-9-14.6-9.3-18.3c-0.3-3.5-3.6-0.9-5.2-5.8c-0.8-2.4-4.8-8.1,0.9-6.2c0.5,2,11.9,21.7,12.8,22c2-1.5-5.7-10.7-4.8-13.8
		c-1.8-2.6-11.6-20.3-11.1-22.1c2.7-8.8-2.3,2.3-2.3-3.7c0-1.8,0.1-9.6-1.9-3.5c-0.5,1.4-2.7-4.7-4.9-6.4c-2.7-2.1-1.1,1.2-1.5,5.7
		c-0.9,10-4.1-5.7-4.7-6.1c-2.3-1.7,2.3,3.4-5.2,3.4c-3,0-4,1.2-4.7,1.4c0,0-2.1,1.5-2.7,3.3c-0.7,2.1-2.8,6-0.2,9.1
		c1.2,1.4,6-6.7,2.8,0.4c-1,2.1-2,0.6-0.4,3.8c1.3,2.6-1.9,1.7,4.3,1.7c0,2.4-6.6,6.2-6.7,4.2c-0.2-5.8-3.1,0.5-3.2-3.7
		c-0.1-2.1,4-2.4-2.6-3.4c-3.8-0.6,3.1-4.8-5.3-1.4c-0.4,0.2-1,1.2-1.2,1.5c-1.6,3.6-0.7-3.6-4.9,2.7c-0.5,0.8-6.2,4.5-6.4,4.3
		c-1-0.7-1.4,7-2.6,1.3c-0.1-0.5-1.3,0.3-2.6-2.2c-0.3-0.6-5.9-9-5.9-6.3c0,2.4,5.3,6.5,0.2,9.4c-2.7,1.6-0.9-7.4-3.3,2
		c-2.2,8.6-3.1,4.9-6.8,9.5c-1.2,1.5,4.8,7.6-4.6,3.9c-2.4-1,1.1,2,1.2,5.9c0,0.1,2.4,2.8,3.3,0.8c0.3-0.6,4.5-3.4,6.5,1
		c0.9,2,2.6,0,0.2-3.5c0-0.1-0.9-2.9,1.1-2.1c3.7,1.4,7.9-4.5,7.5,0c-0.2,2-2.7-0.3,2.2,2.8c1.8,1.2-5.6,6.6-0.4,3
		c4.3-2.9,4.4-1.4,0.6,1.6c-6.7,5.2-2.9,4.9,2.6,0.5c2.6-2.1,0.1,1.7,0.8,1.7c4.3,0-0.3-1.7,4.5,4.2c2.1,2.5,5.7,10,9.4,14.6
		c4,5.1,7.2,11.9,13.1,16.4c2.6,2,9.6,11.3,9.6,14.4c0,4.5-7.2,4.1-0.6,4.6c-1.6,4-10.8,10.9-16.6,16.5c-4,3.9-7.6,6.1-10.9,10.4
		c-1.6,2.1-5.9,7.8-9,10.8c-5.1,5-14.8,19.3-20,26.3c-3.9,5.2-10.3,11.6-13.2,16.1c-0.9,1.5-13.5,15.1-4.5,12.7
		c5-1.3,19.4-23.5,23.1-26.2c5.5-4.1,7-13.2,16.3-16.8c1-0.4,18.6-23.1,17.4-19.1c-2.4,8.3-21.4,32.1-27.9,38.8
		c-3.4,3.6-9.8,10.5-11.9,14.6c-0.5,1.1-5.3,6.5-2.7,6c0.2,0,4.2-5.1,5-5.8c3.2-2.4,3.4-2.5,5.7-5.3c1.5-1.8,1.5-1.9,2-2.5
		c0.3-0.4,13.6-18.6,9.7-10.2c-1,2.2-18.5,22.8-8.4,18.1c3-1.4,16.3-21.2,10.1-7.1c-1.6,3.6-2.8,4.6-4.1,6.2
		c-0.5,0.3-0.9,0.7-1.1,0.9c-1.1,0.9-1.9,1.7-1.3,2.1c0.6,0.4-0.1,1.9-1.9,3.3c-0.5,0.3-1,0.7-1.5,1c-2.2,1.2-5.2,2.1-8.8,1.4
		c-8.7-1.6,4.1,11.6-5.5,11.1c-9.3-0.5,2.2,23.7,2.3,16.4c0-1.6,6.6-4.9,8.6-1.3c1,1.8,4.9,5.8,6.1,1.5c1.3-4.8,2.9,4.8,3.2-6.4
		c0.2-6.3,12.1-2.9,9.5-6.8c-1.1-1.6-4.3-1.3-4.1-3.7c0.1-1,5.9-2.4,1-3c-0.2,0-1.6-2,1.4-3.1c7.2-2.6-2.5-3.1,6.8-3.1
		c3.4,0,0.9-3.3,2.1-5.5c2.4-4.4,0.1-1.7,4.1-7.4c2.3-2.2,4.5-5,6.7-7.3c4.7-4.7,5.3-6.3,9.5-11.6c8.1-10.1,16.1-20.3,23.4-29.1
		c4.3-5.1,15.5-20.5,21.6-27.7L446.6,102.9z"/>
	<path class="st1" d="M403.5,122.9c2.2-1.9,5.1-4.5,7.2-6.6c-0.2-0.4-0.4-0.8-0.5-1.3c-0.2-1.1-0.2-3.2,2.5-4.7
		c0.2-0.1,0.5-0.3,0.7-0.5c-0.7-2.5-6-9.8-8-11.2c-4.6-3.4-7.6-8-10.3-12.1c-0.8-1.2-1.6-2.4-2.4-3.5c-2,6.4-3,13.1-3,20.1v0.4
		c0,9.1,1.7,17.6,5,25.6c0.2,0.4,0.3,0.8,0.5,1.1c0.7-0.6,1.5-1.3,2.2-2C399.3,126.6,401.5,124.7,403.5,122.9z"/>
	<path class="st2" d="M930.3,67.9c8.6,0,15.6-7,15.6-15.6s-7-15.6-15.6-15.6s-15.6,7-15.6,15.6S921.7,67.9,930.3,67.9z M930.3,39.2
		c7.2,0,13.1,5.9,13.1,13.1c0,7.2-5.9,13.1-13.1,13.1s-13.1-5.9-13.1-13.1C917.3,45,923.1,39.2,930.3,39.2z"/>
	<path class="st1" d="M446.7,37.6l1.1,1.6l-0.4,1.4c0.3,1,1.5,3.3,2.3,4.7c2.3,4.2,4.7,8.6,1.1,11.5l-0.3,0.2
		c0.2,0.3,0.4,0.6,0.5,0.8c1.9-0.2,3.9-0.4,5.9-0.4c6.1,0,11.8,1.2,17,3.4l12.8-17.9c-0.7-0.3-1.5-0.7-2.2-1
		c-8.2-3.5-17.3-5.2-27.2-5.2c-3.7,0-7.2,0.2-10.7,0.7C446.6,37.5,446.7,37.6,446.7,37.6z"/>
	<path class="st2" d="M927.9,54.4h1.3c1.7,0,2.5,0.7,3,3c0.6,2.3,1,3.9,1.3,4.4h4.4c-0.4-0.7-0.9-3.2-1.5-5.3
		c-0.5-1.7-1.2-3-2.5-3.5v-0.1c1.6-0.6,3.3-2.2,3.3-4.6c0-1.7-0.6-3-1.7-3.9c-1.3-1.1-3.3-1.5-6.1-1.5c-2.3,0-4.3,0.2-5.7,0.4v18.6
		h4.2V54.4z M927.9,46.1c0.3-0.1,0.9-0.1,1.9-0.1c2,0,3.1,0.9,3.1,2.6c0,1.6-1.3,2.7-3.4,2.7h-1.7V46.1z"/>
	<path class="st1" d="M521,124.5c2.2-6.7,3.4-13.8,3.4-21.3v-0.4c0-9.1-1.7-17.6-5-25.6c-0.2-0.5-0.4-1-0.7-1.5l-17,22.8L521,124.5z
		"/>
	<polygon class="st2" points="544.6,40.9 540.4,46.5 540.4,150.7 554.8,170 563.6,170 563.6,91.3 605.3,131.8 606.1,131.8 
		648.1,90.9 648.1,170 671.3,170 671.3,36.9 605.9,99.8 	"/>
	<polygon class="st2" points="135.1,36.9 108.3,36.9 75,84.6 42,36.9 14.4,36.9 61,102.3 12.5,170 39.3,170 74.5,119.6 109.5,170 
		137,170 88.7,101.9 	"/>
	<path class="st2" d="M807.1,170h24l17-32.1h28.5H905l17,32.1h24L876.5,36.9L807.1,170z M876.5,117.1h-17.8l17.8-33.5l17.8,33.5
		H876.5z"/>
	<path class="st2" d="M796.3,112.2c-2.3-2.5-5.1-4.7-8.3-6.6c-3.2-1.8-6.8-3.5-10.7-4.9c2.4-1.3,4.7-2.8,7.1-4.6
		c2.3-1.8,4.3-3.8,6-6.2c1.7-2.3,3.1-5.1,4.1-8.2c1.1-3.1,1.6-6.7,1.6-10.7v-0.4c0-8.7-3-16.1-8.9-22.1
		c-7.8-7.9-19.4-11.8-34.7-11.8h-59.6V170h61.5c7.3,0,14.1-0.8,20.1-2.4c6.1-1.6,11.3-3.9,15.6-6.9c4.3-3,7.6-6.8,10-11.4
		c2.3-4.6,3.5-9.8,3.5-15.8v-0.4c0-4.6-0.6-8.6-1.9-12C800.4,117.7,798.6,114.7,796.3,112.2z M716.1,57.6h33.6
		c7.6,0,13.4,1.5,17.3,4.5c4,3,6,7.1,6,12.5v0.4c0,6.1-2.3,10.6-6.8,13.6c-4.6,3-10.6,4.5-18.2,4.5h-31.8V57.6z M780.3,131
		c0,6.1-2.3,10.6-6.8,13.7c-4.6,3-10.8,4.6-18.8,4.6h-38.7v-36.5h37c9.2,0,16.1,1.6,20.6,4.7c4.5,3.1,6.7,7.5,6.7,13.2V131z"/>
	<polygon class="st2" points="145,58.6 187.2,58.6 187.2,170 210.8,170 210.8,58.6 253.1,58.6 253.1,36.9 145,36.9 	"/>
	<path class="st2" d="M361.8,170c0.1-0.2,0.2-0.3,0.4-0.5c2.7-3.8,5.6-7.8,8.3-11.3l-27.5-38.6c4.7-1.3,9-3.1,12.8-5.4
		c3.9-2.3,7.2-5.2,10-8.6c2.8-3.4,5-7.2,6.6-11.6c1.6-4.4,2.4-9.3,2.4-14.7v-0.4c0-4.8-0.7-9.2-2-13.3c-1.2-0.4-2.1-1.3-2.6-2.5
		c-0.4-1.2-0.3-2.3,0.2-3.3c0-0.1-0.1-0.2-0.1-0.3c-0.8,1-2,1.5-3.3,1.5c-1.8,0-3.5-1.1-4.4-3c-0.9,1.3-2.3,2-3.9,2
		c-2.6,0-6.2-2.7-6.2-5.4c0-1-0.6-2.2-1.1-3.1c-0.6-1.1-1.6-3-0.4-5.1c0.7-1.2,2.1-2,3.5-2c0.5,0,0.9,0.1,1.2,0.2
		c0-0.1,0-0.2,0.1-0.4c-2.6-1.5-5.4-2.8-8.4-3.9c-6.5-2.3-13.9-3.5-22.3-3.5h-59.3V170h23.2v-46.4h29h0.4l32.8,46.4H361.8z
		 M289.1,102.9V58h34.1c8.8,0,15.6,1.9,20.4,5.6c4.8,3.8,7.2,9.3,7.2,16.5v0.4c0,6.9-2.5,12.3-7.4,16.3c-5,4-11.6,6-20,6H289.1z"/>
	<path class="st1" d="M477.5,143.9c-0.9,0.5-1.8,1-2.8,1.4c-5.3,2.4-11.1,3.6-17.5,3.6c-5,0-9.7-0.8-14-2.3
		c-1.1,1.4-2.1,2.6-2.8,3.5c-3.6,4.4-7.4,9.1-11.3,14c0.2,0.1,0.4,0.2,0.6,0.3c8.2,3.5,17.3,5.2,27.2,5.2c9.9,0,19-1.8,27.2-5.3
		c2.1-0.9,4.2-1.9,6.1-3L477.5,143.9z"/>
</g>
</svg>
